# xmcd
#
# Track frame offsets: 
#        150
#        16007
#        35940
#        54982
#        71712
#        86977
#        104042
#        121607
#        136595
#        154982
#        176362
#        193955
#        213630
#        233052
#        255617
#        278482
#        294305
#        318177
#
# Disc length: 4514 seconds
#
# Revision: 0
# Processed by: cddbd v1.5.2PL0 Copyright (c) Steve Scherf et al.
# Submitted via: ExactAudioCopy v0.99pb5
#
DISCID=0111a012
DTITLE=Patricia Kaas - Rien ne s'arrete
DYEAR=2001
DGENRE=Chanson
TTITLE0=Patricia Kaas - Rien ne s'arrete (Inedit)
TTITLE1=Patricia Kaas - D'Allemagne
TTITLE2=Patricia Kaas - Mon mec a moi
TTITLE3=Patricia Kaas - Quand Jimmy dit
TTITLE4=Patricia Kaas - Mademoiselle chante le blues (live)
TTITLE5=Patricia Kaas - Les hommes qui passent
TTITLE6=Patricia Kaas - Les mannequins d'osier
TTITLE7=Patricia Kaas - Kennedy Rose
TTITLE8=Patricia Kaas - Entrer dans la lumiere
TTITLE9=Patricia Kaas - Il me dit que je suis belle
TTITLE10=Patricia Kaas - Ceux qui n'ont rien
TTITLE11=Patricia Kaas - Quand j'ai peur de tout
TTITLE12=Patricia Kaas - Je voudrais la connaître
TTITLE13=Patricia Kaas - L'aigle noir
TTITLE14=Patricia Kaas - Ma liberte contre la tienne
TTITLE15=Patricia Kaas - Une fille de l'Est
TTITLE16=Patricia Kaas - Les chansons commencent
TTITLE17=Patricia Kaas - Mon chercheur d'or (bonus)
EXTD=
EXTT0=
EXTT1=
EXTT2=
EXTT3=
EXTT4=
EXTT5=
EXTT6=
EXTT7=
EXTT8=
EXTT9=
EXTT10=
EXTT11=
EXTT12=
EXTT13=
EXTT14=
EXTT15=
EXTT16=
EXTT17=
PLAYORDER=
